<svg width="174" height="45" viewBox="0 0 174 45" fill="none" xmlns="http://www.w3.org/2000/svg">
  <path d="M70.1461 20.9203C70.1461 21.7611 70.059 22.5672 69.8849 23.3386C69.7108 24.1014 69.4583 24.8165 69.1274 25.4839C68.8053 26.1513 68.4091 26.7667 67.9389 27.3301C67.4688 27.8849 66.9333 28.3746 66.3326 28.7993L71.1256 34H68.2263C67.8083 34 67.4296 33.9437 67.09 33.831C66.7592 33.7183 66.4544 33.5103 66.1758 33.2069L63.4071 30.1645C62.963 30.2858 62.5059 30.3769 62.0358 30.4375C61.5743 30.4982 61.0911 30.5285 60.5861 30.5285C59.1582 30.5285 57.8522 30.2902 56.6681 29.8135C55.4927 29.3281 54.4827 28.6563 53.6381 27.7982C52.8023 26.9401 52.1536 25.9259 51.6922 24.7558C51.2307 23.577 51 22.2985 51 20.9203C51 19.5421 51.2307 18.2679 51.6922 17.0978C52.1536 15.919 52.8023 14.9005 53.6381 14.0424C54.4827 13.1843 55.4927 12.5169 56.6681 12.0401C57.8522 11.5547 59.1582 11.312 60.5861 11.312C62.014 11.312 63.3157 11.5547 64.4911 12.0401C65.6665 12.5255 66.6721 13.1973 67.508 14.0554C68.3438 14.9048 68.9925 15.919 69.4539 17.0978C69.9154 18.2679 70.1461 19.5421 70.1461 20.9203ZM66.5415 20.9203C66.5415 19.8888 66.4022 18.9657 66.1236 18.1509C65.8537 17.3275 65.4619 16.6297 64.9482 16.0577C64.4345 15.4856 63.8076 15.0479 63.0675 14.7445C62.3362 14.4411 61.509 14.2894 60.5861 14.2894C59.6632 14.2894 58.8317 14.4411 58.0916 14.7445C57.3516 15.0479 56.7203 15.4856 56.1979 16.0577C55.6842 16.6297 55.2881 17.3275 55.0094 18.1509C54.7308 18.9657 54.5915 19.8888 54.5915 20.9203C54.5915 21.9518 54.7308 22.8792 55.0094 23.7027C55.2881 24.5174 55.6842 25.2109 56.1979 25.7829C56.7203 26.3463 57.3516 26.7797 58.0916 27.0831C58.8317 27.3865 59.6632 27.5382 60.5861 27.5382C61.509 27.5382 62.3362 27.3865 63.0675 27.0831C63.8076 26.7797 64.4345 26.3463 64.9482 25.7829C65.4619 25.2109 65.8537 24.5174 66.1236 23.7027C66.4022 22.8792 66.5415 21.9518 66.5415 20.9203Z" fill="white"/>
  <path d="M74.6467 16.9808V25.4579C74.6467 26.2727 74.8339 26.9054 75.2083 27.3561C75.5914 27.7982 76.1617 28.0192 76.9192 28.0192C77.4764 28.0192 77.9988 27.8979 78.4864 27.6552C78.974 27.4038 79.4354 27.0614 79.8708 26.628V16.9808H83.0966V30.3205H81.1245C80.7066 30.3205 80.4324 30.1255 80.3018 29.7354L80.0797 28.6693C79.8011 28.9467 79.5138 29.2024 79.2178 29.4364C78.9217 29.6618 78.6039 29.8568 78.2644 30.0215C77.9335 30.1775 77.5722 30.2989 77.1804 30.3855C76.7973 30.4809 76.3837 30.5285 75.9397 30.5285C75.2083 30.5285 74.5597 30.4072 73.9937 30.1645C73.4365 29.9131 72.9663 29.5621 72.5832 29.1114C72.2001 28.6606 71.9085 28.1276 71.7082 27.5122C71.5167 26.8881 71.4209 26.2033 71.4209 25.4579V16.9808H74.6467Z" fill="white"/>
  <path d="M88.9308 16.9808V30.3205H85.705V16.9808H88.9308ZM89.414 13.0933C89.414 13.3706 89.3574 13.6307 89.2442 13.8734C89.1311 14.1161 88.9787 14.3284 88.7871 14.5105C88.6043 14.6925 88.3866 14.8398 88.1341 14.9525C87.8816 15.0565 87.6117 15.1085 87.3244 15.1085C87.0458 15.1085 86.7802 15.0565 86.5277 14.9525C86.284 14.8398 86.0706 14.6925 85.8878 14.5105C85.705 14.3284 85.5569 14.1161 85.4438 13.8734C85.3393 13.6307 85.287 13.3706 85.287 13.0933C85.287 12.8072 85.3393 12.5385 85.4438 12.2872C85.5569 12.0358 85.705 11.8191 85.8878 11.6371C86.0706 11.4551 86.284 11.312 86.5277 11.208C86.7802 11.0953 87.0458 11.039 87.3244 11.039C87.6117 11.039 87.8816 11.0953 88.1341 11.208C88.3866 11.312 88.6043 11.4551 88.7871 11.6371C88.9787 11.8191 89.1311 12.0358 89.2442 12.2872C89.3574 12.5385 89.414 12.8072 89.414 13.0933Z" fill="white"/>
  <path d="M100.959 19.8021C100.863 19.9235 100.767 20.0188 100.671 20.0882C100.584 20.1575 100.454 20.1922 100.28 20.1922C100.114 20.1922 99.9531 20.1445 99.7964 20.0492C99.6397 19.9452 99.4525 19.8325 99.2348 19.7111C99.0171 19.5811 98.7559 19.4684 98.4512 19.3731C98.1552 19.2691 97.7851 19.2171 97.3411 19.2171C96.7752 19.2171 96.2789 19.3211 95.8523 19.5291C95.4256 19.7285 95.0686 20.0188 94.7813 20.4002C94.5027 20.7816 94.2937 21.2453 94.1544 21.7914C94.0151 22.3288 93.9455 22.9399 93.9455 23.6246C93.9455 24.3354 94.0195 24.9682 94.1675 25.5229C94.3242 26.0776 94.5462 26.5457 94.8336 26.9271C95.1209 27.2998 95.4692 27.5858 95.8784 27.7852C96.2876 27.9759 96.749 28.0712 97.2627 28.0712C97.7764 28.0712 98.19 28.0106 98.5034 27.8892C98.8256 27.7592 99.0955 27.6205 99.3132 27.4732C99.5308 27.3171 99.718 27.1784 99.8748 27.0571C100.04 26.9271 100.223 26.8621 100.423 26.8621C100.684 26.8621 100.88 26.9617 101.011 27.1611L101.938 28.3313C101.581 28.7473 101.194 29.0984 100.776 29.3844C100.358 29.6618 99.9226 29.8871 99.4699 30.0605C99.0259 30.2252 98.5644 30.3422 98.0855 30.4115C97.6067 30.4809 97.1321 30.5155 96.662 30.5155C95.8348 30.5155 95.0556 30.3639 94.3242 30.0605C93.5929 29.7484 92.9529 29.2977 92.4044 28.7083C91.8646 28.1189 91.4336 27.3995 91.1114 26.55C90.798 25.6919 90.6413 24.7168 90.6413 23.6246C90.6413 22.6452 90.7806 21.7394 91.0592 20.9073C91.3465 20.0665 91.7644 19.3428 92.313 18.736C92.8615 18.1206 93.5406 17.6395 94.3503 17.2928C95.1601 16.9461 96.0917 16.7728 97.1452 16.7728C98.1465 16.7728 99.0215 16.9331 99.7703 17.2538C100.528 17.5745 101.207 18.0339 101.808 18.632L100.959 19.8021Z" fill="white"/>
  <path d="M106.211 11V22.0644H106.811C107.029 22.0644 107.199 22.0341 107.321 21.9734C107.443 21.9128 107.573 21.8001 107.712 21.6354L111.043 17.5399C111.191 17.3665 111.348 17.2321 111.513 17.1368C111.678 17.0328 111.896 16.9808 112.166 16.9808H115.118L110.951 21.9344C110.803 22.1164 110.651 22.2855 110.494 22.4415C110.338 22.5888 110.168 22.7189 109.985 22.8315C110.168 22.9616 110.329 23.1132 110.468 23.2866C110.607 23.46 110.747 23.6463 110.886 23.8457L115.353 30.3205H112.44C112.188 30.3205 111.974 30.2772 111.8 30.1905C111.626 30.1038 111.469 29.9565 111.33 29.7484L107.921 24.6908C107.791 24.4914 107.66 24.3614 107.53 24.3007C107.399 24.2401 107.203 24.2097 106.942 24.2097H106.211V30.3205H102.985V11H106.211Z" fill="white"/>
  <path d="M118.337 11.5201C118.494 11.5201 118.624 11.5287 118.729 11.5461C118.833 11.5547 118.925 11.5807 119.003 11.6241C119.09 11.6588 119.173 11.7151 119.251 11.7931C119.33 11.8624 119.417 11.9578 119.512 12.0791L129.425 24.6518C129.39 24.3484 129.364 24.0537 129.347 23.7677C129.338 23.473 129.334 23.1999 129.334 22.9486V11.5201H132.429V30.3205H130.614C130.335 30.3205 130.104 30.2772 129.921 30.1905C129.739 30.1038 129.56 29.9478 129.386 29.7224L119.512 17.2018C119.539 17.4792 119.556 17.7565 119.565 18.0339C119.582 18.3026 119.591 18.5497 119.591 18.775V30.3205H116.496V11.5201H118.337Z" fill="white"/>
  <path d="M140.731 16.7728C141.733 16.7728 142.638 16.9331 143.448 17.2538C144.266 17.5745 144.963 18.0296 145.538 18.619C146.112 19.2084 146.556 19.9278 146.87 20.7773C147.183 21.6267 147.34 22.5758 147.34 23.6246C147.34 24.6821 147.183 25.6356 146.87 26.485C146.556 27.3345 146.112 28.0582 145.538 28.6563C144.963 29.2544 144.266 29.7138 143.448 30.0345C142.638 30.3552 141.733 30.5155 140.731 30.5155C139.73 30.5155 138.82 30.3552 138.002 30.0345C137.183 29.7138 136.483 29.2544 135.899 28.6563C135.325 28.0582 134.876 27.3345 134.554 26.485C134.241 25.6356 134.084 24.6821 134.084 23.6246C134.084 22.5758 134.241 21.6267 134.554 20.7773C134.876 19.9278 135.325 19.2084 135.899 18.619C136.483 18.0296 137.183 17.5745 138.002 17.2538C138.82 16.9331 139.73 16.7728 140.731 16.7728ZM140.731 28.0452C141.846 28.0452 142.669 27.6725 143.2 26.9271C143.74 26.1816 144.01 25.0895 144.01 23.6507C144.01 22.2118 143.74 21.1153 143.2 20.3612C142.669 19.6071 141.846 19.2301 140.731 19.2301C139.6 19.2301 138.764 19.6115 138.224 20.3742C137.684 21.1283 137.414 22.2205 137.414 23.6507C137.414 25.0808 137.684 26.173 138.224 26.9271C138.764 27.6725 139.6 28.0452 140.731 28.0452Z" fill="white"/>
  <path d="M158.241 30.3205C157.823 30.3205 157.549 30.1255 157.419 29.7354L157.157 28.4483C156.879 28.7603 156.587 29.042 156.282 29.2934C155.978 29.5448 155.647 29.7614 155.29 29.9435C154.942 30.1255 154.563 30.2642 154.154 30.3595C153.753 30.4635 153.318 30.5155 152.848 30.5155C152.116 30.5155 151.446 30.3639 150.836 30.0605C150.227 29.7571 149.7 29.3194 149.256 28.7473C148.821 28.1666 148.481 27.4515 148.237 26.602C148.002 25.7526 147.885 24.7818 147.885 23.6897C147.885 22.7015 148.02 21.7827 148.29 20.9333C148.559 20.0839 148.947 19.3471 149.452 18.723C149.957 18.0989 150.562 17.6135 151.267 17.2668C151.973 16.9114 152.765 16.7337 153.644 16.7337C154.393 16.7337 155.033 16.8551 155.564 17.0978C156.095 17.3318 156.57 17.6482 156.988 18.0469V11H160.213V30.3205H158.241ZM153.945 27.9672C154.615 27.9672 155.185 27.8285 155.655 27.5512C156.126 27.2738 156.57 26.8794 156.988 26.368V20.3872C156.622 19.9452 156.221 19.6331 155.786 19.4511C155.359 19.2691 154.898 19.1781 154.402 19.1781C153.914 19.1781 153.47 19.2691 153.07 19.4511C152.678 19.6331 152.343 19.9105 152.064 20.2832C151.794 20.6473 151.585 21.1153 151.437 21.6874C151.289 22.2508 151.215 22.9182 151.215 23.6897C151.215 24.4698 151.276 25.1328 151.398 25.6789C151.528 26.2163 151.711 26.6584 151.946 27.0051C152.181 27.3431 152.469 27.5902 152.808 27.7462C153.148 27.8935 153.527 27.9672 153.945 27.9672Z" fill="white"/>
  <path d="M168.201 16.7728C169.046 16.7728 169.821 16.9071 170.526 17.1758C171.24 17.4445 171.854 17.8389 172.367 18.359C172.881 18.8704 173.282 19.5031 173.569 20.2572C173.856 21.0026 174 21.8564 174 22.8185C174 23.0612 173.987 23.2649 173.961 23.4296C173.943 23.5856 173.904 23.7113 173.843 23.8067C173.791 23.8933 173.717 23.9584 173.621 24.0017C173.525 24.0364 173.404 24.0537 173.256 24.0537H164.975C165.071 25.4232 165.441 26.4287 166.086 27.0701C166.73 27.7115 167.583 28.0322 168.645 28.0322C169.168 28.0322 169.616 27.9715 169.991 27.8502C170.374 27.7288 170.704 27.5945 170.983 27.4471C171.27 27.2998 171.519 27.1654 171.728 27.0441C171.945 26.9227 172.154 26.8621 172.354 26.8621C172.485 26.8621 172.598 26.8881 172.694 26.9401C172.79 26.9921 172.872 27.0658 172.942 27.1611L173.882 28.3313C173.525 28.7473 173.125 29.0984 172.681 29.3844C172.237 29.6618 171.771 29.8871 171.284 30.0605C170.805 30.2252 170.313 30.3422 169.808 30.4115C169.311 30.4809 168.828 30.5155 168.358 30.5155C167.426 30.5155 166.56 30.3639 165.759 30.0605C164.958 29.7484 164.262 29.2934 163.669 28.6953C163.077 28.0886 162.612 27.3431 162.272 26.459C161.932 25.5662 161.763 24.5348 161.763 23.3646C161.763 22.4545 161.911 21.6007 162.207 20.8033C162.503 19.9972 162.925 19.2994 163.474 18.71C164.031 18.1119 164.706 17.6395 165.498 17.2928C166.299 16.9461 167.2 16.7728 168.201 16.7728ZM168.267 19.0741C167.326 19.0741 166.591 19.3384 166.059 19.8672C165.528 20.3959 165.189 21.1457 165.041 22.1164H171.101C171.101 21.7004 171.044 21.3103 170.931 20.9463C170.818 20.5736 170.644 20.2485 170.408 19.9712C170.173 19.6938 169.877 19.4771 169.52 19.3211C169.163 19.1564 168.745 19.0741 168.267 19.0741Z" fill="white"/>
  <path d="M22.5656 35.9813C14.8213 35.9813 8.55443 29.8204 8.55443 22.2072C8.55443 14.594 14.8213 8.43311 22.5656 8.43311C32.7404 8.43311 39.3885 18.6934 35.4568 27.6653L26.4973 24.784L39.1502 37.2228C42.8675 33.2639 45.1312 27.9932 45.1312 22.1838C45.1312 9.93233 35.0279 0 22.5656 0C10.1033 0 0 9.93233 0 22.1838C0 34.4352 10.1033 44.3675 22.5656 44.3675C26.9262 44.3675 30.9771 43.1494 34.4322 41.0646L44.464 45L31.8111 32.5377C29.3329 34.6694 26.0922 35.9813 22.5656 35.9813Z" fill="#40C6F0"/>
</svg>
