<?xml version="1.0" standalone="no"?>
<!DOCTYPE svg PUBLIC "-//W3C//DTD SVG 20010904//EN"
 "http://www.w3.org/TR/2001/REC-SVG-20010904/DTD/svg10.dtd">
<svg version="1.0" xmlns="http://www.w3.org/2000/svg"
 width="128.000000pt" height="128.000000pt" viewBox="0 0 128.000000 128.000000"
 preserveAspectRatio="xMidYMid meet">
<metadata>
Created by potrace 1.16, written by Peter Selinger 2001-2019
</metadata>
<g transform="translate(0.000000,128.000000) scale(0.025600,-0.025600)"
fill="#000000" stroke="none">
<path d="M1627 4979 c-19 -16 -20 -20 -7 -29 8 -5 10 -10 5 -10 -6 0 -16 5
-21 10 -7 7 -17 3 -30 -12 l-19 -23 25 20 c14 11 1 -6 -29 -37 -35 -35 -60
-54 -70 -50 -10 4 -13 1 -8 -11 3 -9 2 -17 -4 -17 -6 0 -8 -4 -5 -9 3 -5 -1
-12 -10 -15 -10 -4 -13 -2 -8 6 4 7 3 8 -4 4 -7 -4 -12 -13 -12 -19 -1 -19
-38 -59 -49 -53 -10 7 -24 -10 -27 -31 -3 -19 -33 -45 -43 -38 -10 6 -24 -11
-27 -33 -3 -19 -25 -42 -38 -41 -31 4 -45 -2 -40 -16 4 -10 0 -15 -12 -16 -18
0 -18 -1 1 -10 18 -8 17 -9 -6 -6 -20 3 -28 -2 -38 -25 -10 -23 -16 -26 -27
-17 -10 8 -12 7 -9 -10 3 -15 -1 -21 -15 -21 -10 0 -22 -5 -26 -11 -3 -6 -17
-9 -30 -6 -16 3 -24 0 -24 -9 0 -8 -8 -14 -17 -14 -15 0 -16 -2 -3 -10 12 -8
11 -10 -7 -10 -15 0 -21 -5 -17 -14 4 -10 -4 -14 -32 -14 -24 0 -40 -6 -46
-16 -11 -20 -68 -50 -68 -36 0 5 -8 10 -17 10 -15 0 -16 -2 -3 -10 12 -8 12
-10 -2 -15 -9 -4 -22 -6 -29 -4 -28 3 -39 -1 -39 -16 0 -11 -7 -14 -27 -10
-21 4 -23 3 -9 -3 14 -6 16 -11 8 -16 -7 -4 -12 -5 -12 -1 0 3 -13 -1 -30 -10
-16 -8 -38 -15 -50 -15 -11 0 -20 -4 -20 -10 0 -5 -7 -10 -16 -10 -8 0 -12 -5
-8 -11 9 -15 -17 -30 -32 -18 -8 6 -13 3 -17 -11 -3 -13 -10 -18 -21 -14 -8 3
-25 -1 -37 -10 -22 -15 -22 -15 -1 -13 11 0 18 5 16 9 -3 4 0 8 6 8 7 0 10 -6
7 -12 -2 -7 -8 -13 -13 -13 -5 0 -15 -4 -22 -8 -7 -5 -22 -5 -35 -2 -15 4 -18
3 -8 -3 9 -7 10 -12 2 -16 -6 -4 -8 -13 -4 -19 4 -7 -1 -6 -10 2 -10 8 -20 11
-24 7 -3 -3 -1 -6 6 -6 7 0 9 -5 5 -11 -3 -6 -18 -8 -33 -5 -19 5 -22 4 -11
-4 11 -7 11 -10 2 -10 -8 0 -10 -5 -6 -12 5 -9 2 -8 -9 1 -10 8 -20 11 -24 7
-3 -3 0 -6 8 -6 9 -1 6 -8 -10 -20 -13 -11 -19 -20 -15 -20 5 0 2 -4 -6 -9
-18 -12 -36 -1 -19 11 11 8 11 9 -1 5 -8 -2 -16 -9 -16 -15 -1 -7 -2 -16 -3
-21 -1 -11 -41 -26 -55 -22 -5 1 -3 -6 5 -15 8 -10 9 -15 3 -11 -6 4 -19 -2
-29 -13 -14 -16 -21 -17 -32 -8 -11 9 -13 8 -11 -2 2 -8 -4 -14 -12 -15 -8 -1
-14 -7 -12 -14 4 -17 -18 -42 -29 -35 -5 3 -9 0 -9 -6 0 -6 -4 -8 -10 -5 -5 3
-20 -1 -34 -10 -22 -15 -24 -22 -25 -121 -1 -57 2 -103 6 -102 4 2 8 -1 8 -7
0 -5 -3 -9 -8 -7 -4 1 -7 -759 -7 -1688 l0 -1691 22 12 c18 10 20 9 14 -6 -5
-13 -2 -16 10 -11 10 4 18 0 21 -12 5 -23 60 -44 91 -36 16 5 22 2 22 -10 0
-10 7 -17 18 -15 36 3 52 -1 52 -15 0 -15 37 -32 47 -22 4 3 -1 6 -10 6 -9 0
-18 4 -21 8 -3 5 9 6 25 4 19 -3 28 -9 25 -17 -5 -15 31 -28 40 -14 9 15 37
10 31 -5 -4 -10 3 -14 29 -14 43 0 59 -12 18 -13 -25 0 -23 -2 16 -15 49 -15
77 -18 45 -4 -17 8 -16 9 9 9 20 1 27 -3 23 -13 -7 -19 22 -26 47 -12 14 8 20
8 23 -1 6 -17 2903 -19 2903 -2 0 8 4 8 14 0 11 -9 16 -9 22 0 5 8 3 9 -7 3
-8 -4 3 10 24 31 23 23 46 39 57 37 10 -2 20 5 24 14 5 14 4 15 -8 5 -12 -10
-14 -9 -12 5 2 10 8 20 14 22 7 2 12 10 12 18 0 8 5 14 11 14 6 0 8 -7 4 -17
-5 -14 -4 -15 6 -6 10 10 9 16 -1 28 -11 13 -10 15 3 10 11 -5 17 2 22 24 6
30 25 43 25 19 0 -7 10 2 21 20 12 18 19 41 16 53 -3 12 0 22 8 25 12 5 30 58
26 77 -1 5 2 6 6 4 15 -10 40 18 48 53 7 30 9 32 16 15 7 -20 8 -19 8 1 1 17
6 20 29 17 20 -3 23 -2 13 5 -12 9 -12 13 -2 26 8 9 10 16 6 16 -4 0 -2 6 4
14 7 8 21 12 32 9 15 -4 18 -2 13 11 -4 11 -1 16 13 16 10 0 25 6 32 12 11 11
13 9 8 -11 -3 -13 -2 -20 3 -15 4 5 10 20 12 34 3 21 11 27 58 37 41 9 46 12
18 10 -21 -2 -35 0 -30 4 12 12 112 27 118 18 9 -15 44 -10 44 6 0 11 12 15
48 15 54 1 171 27 132 30 -21 2 -18 4 15 15 26 8 44 9 52 3 7 -5 20 -8 30 -5
13 3 11 5 -7 7 -23 1 -23 2 -5 10 11 5 38 9 60 9 22 1 63 8 90 16 48 14 19 14
-41 -1 -16 -4 -25 -3 -21 2 4 4 20 10 34 12 15 2 34 7 42 11 9 5 36 7 61 6 33
-2 38 -1 20 4 l-25 8 30 8 c17 4 38 15 47 23 10 8 18 12 18 8 0 -3 14 1 31 10
19 10 44 14 63 11 17 -3 25 -3 18 0 -17 7 -5 23 13 17 7 -3 22 0 32 6 17 11
17 11 -2 6 -20 -6 -20 -6 -1 9 11 8 23 15 28 15 4 0 8 803 8 1785 0 1851 1
1825 -39 1825 -10 0 -11 3 -2 14 8 9 8 16 2 20 -5 4 -13 1 -16 -5 -5 -7 -12
-3 -22 10 -8 12 -12 25 -9 29 2 4 -5 14 -17 22 -20 12 -21 12 -9 -3 10 -12 10
-17 1 -23 -7 -4 -9 -3 -6 3 8 13 -63 84 -76 76 -6 -3 -7 -1 -3 6 6 9 12 9 24
-1 15 -12 16 -11 3 5 -7 9 -18 17 -24 17 -6 0 -20 8 -31 18 -21 17 -21 17 -2
-5 23 -28 13 -30 -13 -4 -14 14 -16 22 -7 31 8 9 6 11 -10 8 -11 -1 -22 2 -24
7 -7 18 -23 31 -42 32 -10 1 -25 8 -33 17 -18 17 -20 30 -3 20 7 -5 8 -3 4 5
-5 7 -14 10 -22 7 -7 -3 -20 1 -28 9 -8 8 -20 15 -26 15 -7 0 -10 7 -6 15 6
17 -22 35 -42 28 -7 -3 -24 4 -36 16 -12 12 -26 18 -31 14 -4 -5 -5 -2 -1 5 6
11 12 10 27 -4 17 -15 19 -16 14 -2 -7 17 -49 37 -95 46 -56 10 -2400 12
-2400 2 0 -7 -6 -7 -20 0 -13 7 -79 10 -176 9 -134 -1 -158 -4 -177 -20z
m1706 -1121 l220 -103 152 -135 c84 -74 216 -191 294 -260 l141 -125 130 -212
130 -211 -20 -274 c-11 -150 -20 -286 -20 -303 0 -63 104 -38 -1065 -256 -390
-73 -711 -133 -711 -133 -1 -1 -5 -188 -9 -416 -5 -252 -11 -420 -17 -428 -6
-6 -19 -12 -29 -12 -10 0 -195 50 -411 111 -216 61 -640 180 -942 265 -302 85
-556 160 -564 166 -13 11 -14 54 -8 326 l7 313 145 194 145 194 313 234 312
234 222 82 c122 44 232 81 244 81 13 0 115 -27 228 -59 113 -32 207 -56 209
-55 2 2 16 170 31 374 20 282 30 374 41 385 10 10 510 113 603 124 5 1 108
-45 229 -101z"/>
<path d="M2845 3824 c-126 -24 -236 -45 -243 -46 -8 -2 30 -93 108 -258 66
-140 126 -268 133 -283 l12 -28 205 143 c113 79 208 145 210 148 6 6 -182 371
-190 369 -3 -1 -108 -21 -235 -45z"/>
<path d="M3210 3816 c0 -2 21 -43 46 -92 113 -217 92 -193 386 -456 150 -134
279 -248 286 -252 20 -12 316 -126 319 -123 1 2 -37 66 -85 144 -80 129 -96
149 -198 239 -480 428 -449 403 -552 451 -146 68 -202 93 -202 89z"/>
<path d="M2556 3599 c-9 -59 -39 -526 -34 -539 2 -7 19 -18 38 -24 l35 -11 0
-217 c0 -119 3 -211 6 -205 9 15 189 532 189 540 0 7 -220 479 -226 486 -1 1
-5 -12 -8 -30z"/>
<path d="M3113 3287 c-111 -77 -200 -144 -197 -149 9 -14 687 -618 694 -618 3
0 16 19 28 43 24 48 114 217 173 325 30 54 37 77 30 86 -26 31 -503 451 -514
453 -6 1 -103 -62 -214 -140z"/>
<path d="M2003 3088 c-36 -45 -213 -330 -209 -337 6 -10 374 -315 384 -318 8
-3 317 526 310 532 -2 2 -103 31 -223 65 -121 34 -227 63 -236 66 -9 2 -21 -1
-26 -8z"/>
<path d="M2813 2948 c-35 -104 -130 -375 -204 -587 -15 -44 -19 -82 -19 -208
0 -84 2 -153 4 -153 3 0 122 57 486 232 96 46 239 115 318 153 78 38 141 72
140 75 -3 7 -675 610 -680 610 -2 0 -22 -55 -45 -122z"/>
<path d="M1713 3006 c-79 -29 -148 -57 -155 -63 -7 -5 -145 -108 -305 -228
l-293 -218 -95 -130 c-53 -71 -95 -130 -93 -132 2 -2 75 17 162 42 l159 46
301 224 301 223 83 128 c106 163 106 162 90 161 -7 0 -77 -24 -155 -53z"/>
<path d="M3806 2699 c-65 -121 -114 -224 -110 -228 5 -5 133 -50 284 -101 151
-51 280 -95 286 -97 7 -2 16 81 28 248 10 138 16 252 14 253 -6 4 -374 146
-379 146 -2 0 -57 -100 -123 -221z"/>
<path d="M2372 2583 l-134 -228 123 -492 c68 -270 125 -491 126 -490 4 4 25
1373 22 1405 -4 31 -16 14 -137 -195z"/>
<path d="M1450 2484 c-151 -113 -276 -210 -278 -214 -2 -6 182 -452 194 -468
1 -2 55 37 120 86 66 48 236 175 378 281 251 187 258 193 240 210 -30 28 -372
311 -376 311 -2 -1 -127 -93 -278 -206z"/>
<path d="M3168 2182 c-246 -119 -445 -218 -444 -220 2 -1 75 11 162 27 279 53
311 59 779 146 253 47 464 87 468 88 9 3 -504 178 -513 176 -3 0 -206 -98
-452 -217z"/>
<path d="M2125 2257 c-467 -344 -697 -522 -684 -529 132 -81 1015 -606 1016
-604 1 1 -63 260 -142 576 -80 316 -145 576 -145 578 0 7 -19 -1 -45 -21z"/>
<path d="M882 2175 c-101 -30 -185 -55 -187 -57 -8 -8 -9 -498 -2 -498 5 0 48
9 96 21 337 81 495 120 498 122 7 8 -197 462 -208 464 -8 1 -97 -23 -197 -52z"/>
<path d="M1082 1625 c-139 -34 -255 -64 -257 -67 -2 -2 111 -36 253 -76 209
-59 1029 -290 1123 -317 13 -3 -176 113 -419 259 -244 146 -445 266 -445 265
-1 -1 -116 -29 -255 -64z"/>
</g>
</svg>
